<svg width="1280" height="720" xmlns="http://www.w3.org/2000/svg" xmlns:xlink="http://www.w3.org/1999/xlink" overflow="hidden"><defs><clipPath id="clip0"><rect x="0" y="0" width="1280" height="720"/></clipPath><clipPath id="clip1"><rect x="28" y="105" width="1224" height="510"/></clipPath><clipPath id="clip2"><rect x="28" y="105" width="1224" height="510"/></clipPath><clipPath id="clip3"><rect x="28" y="105" width="1224" height="510"/></clipPath><clipPath id="clip4"><rect x="548" y="182" width="95" height="23"/></clipPath><clipPath id="clip5"><rect x="548" y="204" width="95" height="23"/></clipPath><clipPath id="clip6"><rect x="248" y="261" width="112" height="23"/></clipPath><clipPath id="clip7"><rect x="248" y="283" width="112" height="23"/></clipPath><clipPath id="clip8"><rect x="248" y="305" width="112" height="22"/></clipPath><clipPath id="clip9"><rect x="48" y="327" width="94" height="23"/></clipPath><clipPath id="clip10"><rect x="48" y="349" width="94" height="22"/></clipPath><clipPath id="clip11"><rect x="548" y="433" width="115" height="22"/></clipPath><clipPath id="clip12"><rect x="548" y="454" width="115" height="23"/></clipPath><clipPath id="clip13"><rect x="548" y="476" width="115" height="23"/></clipPath><clipPath id="clip14"><rect x="248" y="499" width="117" height="23"/></clipPath><clipPath id="clip15"><rect x="248" y="521" width="117" height="23"/></clipPath><clipPath id="clip16"><rect x="248" y="543" width="117" height="22"/></clipPath><clipPath id="clip17"><rect x="761" y="326" width="109" height="22"/></clipPath><clipPath id="clip18"><rect x="761" y="347" width="109" height="23"/></clipPath><clipPath id="clip19"><rect x="761" y="369" width="109" height="23"/></clipPath><clipPath id="clip20"><rect x="1109" y="454" width="131" height="23"/></clipPath><clipPath id="clip21"><rect x="1109" y="476" width="131" height="23"/></clipPath><clipPath id="clip22"><rect x="1109" y="286" width="143" height="23"/></clipPath><clipPath id="clip23"><rect x="1109" y="308" width="143" height="23"/></clipPath><clipPath id="clip24"><rect x="1109" y="330" width="143" height="23"/></clipPath><clipPath id="clip25"><rect x="916" y="145" width="160" height="22"/></clipPath><clipPath id="clip26"><rect x="916" y="166" width="160" height="23"/></clipPath></defs><g clip-path="url(#clip0)"><rect x="0" y="0" width="1280" height="720" fill="#262626"/><g clip-path="url(#clip1)"><g clip-path="url(#clip2)"><g clip-path="url(#clip3)"><path d="M331.123 169.892 423.665 169.9 423.665 88.2032 516.206 88.2032" stroke="#FFFFFF" stroke-width="0.722977" stroke-miterlimit="10" fill="none" transform="matrix(1 0 0 1.00059 28.3615 105.362)"/><path d="M347.752 169.892C347.752 171.889 346.133 173.507 344.137 173.507 342.141 173.507 340.522 171.889 340.522 169.892 340.522 167.896 342.141 166.277 344.137 166.277 346.133 166.277 347.752 167.896 347.752 169.892Z" stroke="#FFFFFF" stroke-width="0.722977" fill="#FFFFFF" transform="matrix(1 0 0 1.00059 28.3615 105.362)"/><path d="M335.461 165.555 335.461 174.23" stroke="#FFFFFF" stroke-width="0.722977" stroke-miterlimit="10" fill="none" transform="matrix(1 0 0 1.00059 28.3615 105.362)"/><path d="M511.868 92.5411 511.868 83.8653" stroke="#FFFFFF" stroke-width="0.722977" stroke-miterlimit="10" fill="none" transform="matrix(1 0 0 1.00059 28.3615 105.362)"/><path d="M613.807 77.3585 613.807 65.4294C613.807 58.9226 610.554 55.6692 604.047 55.6692L525.966 55.6692C519.459 55.6692 516.206 58.9226 516.206 65.4294L516.206 77.3585" stroke="#FFFFFF" stroke-width="0.722977" stroke-miterlimit="10" fill="#FFFFFF" transform="matrix(1 0 0 1.00059 28.3615 105.362)"/><path d="M516.206 77.3585 516.206 118.207C516.206 124.714 519.459 127.967 525.966 127.967L604.047 127.967C610.554 127.967 613.807 124.714 613.807 118.207L613.807 77.3585" stroke="#FFFFFF" stroke-width="0.722977" stroke-miterlimit="10" fill="none" transform="matrix(1 0 0 1.00059 28.3615 105.362)"/><path d="M516.206 77.3585 613.807 77.3585" stroke="#FFFFFF" stroke-width="0.722977" stroke-miterlimit="10" fill="none" transform="matrix(1 0 0 1.00059 28.3615 105.362)"/><text font-family="Arial,Arial_MSFontService,sans-serif" font-weight="700" font-size="12" transform="matrix(0.722977 0 0 0.723404 571.317 175)">InventSum</text><path d="" stroke="#000000" stroke-width="0.722977" stroke-linecap="round" stroke-linejoin="round" stroke-miterlimit="10" fill="none" transform="matrix(1 0 0 1.00059 28.3615 105.362)"/><path d="" stroke="#000000" stroke-width="0.722977" stroke-linecap="round" stroke-linejoin="round" stroke-miterlimit="10" fill="none" transform="matrix(1 0 0 1.00059 28.3615 105.362)"/><g clip-path="url(#clip4)"><text fill="#808080" font-family="Arial,Arial_MSFontService,sans-serif" font-weight="400" font-size="12" transform="matrix(0.722977 0 0 0.723404 549.989 197)">InventDimID</text></g><path d="" stroke="#000000" stroke-width="0.722977" stroke-linecap="round" stroke-linejoin="round" stroke-miterlimit="10" fill="none" transform="matrix(1 0 0 1.00059 28.3615 105.362)"/><path d="" stroke="#000000" stroke-width="0.722977" stroke-linecap="round" stroke-linejoin="round" stroke-miterlimit="10" fill="none" transform="matrix(1 0 0 1.00059 28.3615 105.362)"/><g clip-path="url(#clip5)"><text fill="#808080" font-family="Arial,Arial_MSFontService,sans-serif" font-weight="400" font-size="12" transform="matrix(0.722977 0 0 0.723404 549.989 219)">ItemID</text></g><path d="M331.123 156.163 331.123 144.234C331.123 137.727 327.87 134.474 321.363 134.474L225.207 134.474C218.701 134.474 215.447 137.727 215.447 144.234L215.447 156.163" stroke="#FFFFFF" stroke-width="0.722977" stroke-miterlimit="10" fill="#FFFFFF" transform="matrix(1 0 0 1.00059 28.3615 105.362)"/><path d="M215.447 156.163 215.447 218.701C215.447 225.207 218.701 228.461 225.207 228.461L321.363 228.461C327.87 228.461 331.123 225.207 331.123 218.701L331.123 156.163" stroke="#FFFFFF" stroke-width="0.722977" stroke-miterlimit="10" fill="none" transform="matrix(1 0 0 1.00059 28.3615 105.362)"/><path d="M215.447 156.163 331.123 156.163" stroke="#FFFFFF" stroke-width="0.722977" stroke-miterlimit="10" fill="none" transform="matrix(1 0 0 1.00059 28.3615 105.362)"/><text font-family="Arial,Arial_MSFontService,sans-serif" font-weight="700" font-size="12" transform="matrix(0.722977 0 0 0.723404 281.042 254)">InventDim</text><path d="" stroke="#000000" stroke-width="0.722977" stroke-linecap="round" stroke-linejoin="round" stroke-miterlimit="10" fill="none" transform="matrix(1 0 0 1.00059 28.3615 105.362)"/><path d="" stroke="#000000" stroke-width="0.722977" stroke-linecap="round" stroke-linejoin="round" stroke-miterlimit="10" fill="none" transform="matrix(1 0 0 1.00059 28.3615 105.362)"/><g clip-path="url(#clip6)"><text fill="#808080" font-family="Arial,Arial_MSFontService,sans-serif" font-weight="400" font-size="12" transform="matrix(0.722977 0 0 0.723404 249.231 276)">InventDimID</text></g><path d="" stroke="#000000" stroke-width="0.722977" stroke-linecap="round" stroke-linejoin="round" stroke-miterlimit="10" fill="none" transform="matrix(1 0 0 1.00059 28.3615 105.362)"/><path d="" stroke="#000000" stroke-width="0.722977" stroke-linecap="round" stroke-linejoin="round" stroke-miterlimit="10" fill="none" transform="matrix(1 0 0 1.00059 28.3615 105.362)"/><g clip-path="url(#clip7)"><text fill="#808080" font-family="Arial,Arial_MSFontService,sans-serif" font-weight="400" font-size="12" transform="matrix(0.722977 0 0 0.723404 249.231 297)">InventSiteID</text></g><path d="" stroke="#000000" stroke-width="0.722977" stroke-linecap="round" stroke-linejoin="round" stroke-miterlimit="10" fill="none" transform="matrix(1 0 0 1.00059 28.3615 105.362)"/><path d="" stroke="#000000" stroke-width="0.722977" stroke-linecap="round" stroke-linejoin="round" stroke-miterlimit="10" fill="none" transform="matrix(1 0 0 1.00059 28.3615 105.362)"/><g clip-path="url(#clip8)"><text fill="#808080" font-family="Arial,Arial_MSFontService,sans-serif" font-weight="400" font-size="12" transform="matrix(0.722977 0 0 0.723404 249.231 319)">WMSLocationID</text></g><path d="M113.507 221.954 113.507 210.025C113.507 203.518 110.254 200.265 103.747 200.265L25.6657 200.265C19.1589 200.265 15.9055 203.518 15.9055 210.025L15.9055 221.954" stroke="#FFFFFF" stroke-width="0.722977" stroke-miterlimit="10" fill="#FFFFFF" transform="matrix(1 0 0 1.00059 28.3615 105.362)"/><path d="M15.9055 221.954 15.9055 262.802C15.9055 269.309 19.1589 272.562 25.6657 272.562L103.747 272.562C110.254 272.562 113.507 269.309 113.507 262.802L113.507 221.954" stroke="#FFFFFF" stroke-width="0.722977" stroke-miterlimit="10" fill="none" transform="matrix(1 0 0 1.00059 28.3615 105.362)"/><path d="M15.9055 221.954 113.507 221.954" stroke="#FFFFFF" stroke-width="0.722977" stroke-miterlimit="10" fill="none" transform="matrix(1 0 0 1.00059 28.3615 105.362)"/><text font-family="Arial,Arial_MSFontService,sans-serif" font-weight="700" font-size="12" transform="matrix(0.722977 0 0 0.723404 72.4631 320)">InventSite</text><path d="" stroke="#000000" stroke-width="0.722977" stroke-linecap="round" stroke-linejoin="round" stroke-miterlimit="10" fill="none" transform="matrix(1 0 0 1.00059 28.3615 105.362)"/><path d="" stroke="#000000" stroke-width="0.722977" stroke-linecap="round" stroke-linejoin="round" stroke-miterlimit="10" fill="none" transform="matrix(1 0 0 1.00059 28.3615 105.362)"/><g clip-path="url(#clip9)"><text fill="#808080" font-family="Arial,Arial_MSFontService,sans-serif" font-weight="400" font-size="12" transform="matrix(0.722977 0 0 0.723404 49.6893 342)">SiteID</text></g><path d="" stroke="#000000" stroke-width="0.722977" stroke-linecap="round" stroke-linejoin="round" stroke-miterlimit="10" fill="none" transform="matrix(1 0 0 1.00059 28.3615 105.362)"/><path d="" stroke="#000000" stroke-width="0.722977" stroke-linecap="round" stroke-linejoin="round" stroke-miterlimit="10" fill="none" transform="matrix(1 0 0 1.00059 28.3615 105.362)"/><g clip-path="url(#clip10)"><text fill="#0079FF" font-family="Arial,Arial_MSFontService,sans-serif" font-weight="400" font-size="12" transform="matrix(0.722977 0 0 0.723404 49.6893 363)">Name</text></g><path d="M113.507 232.799 164.477 232.799 164.477 188.697 215.447 188.697" stroke="#FFFFFF" stroke-width="0.722977" stroke-miterlimit="10" fill="none" transform="matrix(1 0 0 1.00059 28.3615 105.362)"/><path d="M117.845 228.461 117.845 237.136" stroke="#FFFFFF" stroke-width="0.722977" stroke-miterlimit="10" fill="none" transform="matrix(1 0 0 1.00059 28.3615 105.362)"/><path d="M206.771 193.035 206.771 184.359M215.447 184.359 206.771 188.697 215.447 193.035" stroke="#FFFFFF" stroke-width="0.722977" stroke-miterlimit="10" fill="none" transform="matrix(1 0 0 1.00059 28.3615 105.362)"/><path d="M634.051 327.509 634.051 315.579C634.051 309.073 630.797 305.819 624.291 305.819L525.966 305.819C519.459 305.819 516.206 309.073 516.206 315.579L516.206 327.509" stroke="#FFFFFF" stroke-width="0.722977" stroke-miterlimit="10" fill="#FFFFFF" transform="matrix(1 0 0 1.00059 28.3615 105.362)"/><path d="M516.206 327.509 516.206 390.046C516.206 396.553 519.459 399.806 525.966 399.806L624.291 399.806C630.797 399.806 634.051 396.553 634.051 390.046L634.051 327.509" stroke="#FFFFFF" stroke-width="0.722977" stroke-miterlimit="10" fill="none" transform="matrix(1 0 0 1.00059 28.3615 105.362)"/><path d="M516.206 327.509 634.051 327.509" stroke="#FFFFFF" stroke-width="0.722977" stroke-miterlimit="10" fill="none" transform="matrix(1 0 0 1.00059 28.3615 105.362)"/><text font-family="Arial,Arial_MSFontService,sans-serif" font-weight="700" font-size="12" transform="matrix(0.722977 0 0 0.723404 574.571 425)">WMSLocation</text><path d="" stroke="#000000" stroke-width="0.722977" stroke-linecap="round" stroke-linejoin="round" stroke-miterlimit="10" fill="none" transform="matrix(1 0 0 1.00059 28.3615 105.362)"/><path d="" stroke="#000000" stroke-width="0.722977" stroke-linecap="round" stroke-linejoin="round" stroke-miterlimit="10" fill="none" transform="matrix(1 0 0 1.00059 28.3615 105.362)"/><g clip-path="url(#clip11)"><text fill="#808080" font-family="Arial,Arial_MSFontService,sans-serif" font-weight="400" font-size="12" transform="matrix(0.722977 0 0 0.723404 549.989 447)">WMSLocationID</text></g><path d="" stroke="#000000" stroke-width="0.722977" stroke-linecap="round" stroke-linejoin="round" stroke-miterlimit="10" fill="none" transform="matrix(1 0 0 1.00059 28.3615 105.362)"/><path d="" stroke="#000000" stroke-width="0.722977" stroke-linecap="round" stroke-linejoin="round" stroke-miterlimit="10" fill="none" transform="matrix(1 0 0 1.00059 28.3615 105.362)"/><g clip-path="url(#clip12)"><text fill="#808080" font-family="Arial,Arial_MSFontService,sans-serif" font-weight="400" font-size="12" transform="matrix(0.722977 0 0 0.723404 549.989 469)">InventLocationID</text></g><path d="" stroke="#000000" stroke-width="0.722977" stroke-linecap="round" stroke-linejoin="round" stroke-miterlimit="10" fill="none" transform="matrix(1 0 0 1.00059 28.3615 105.362)"/><path d="" stroke="#000000" stroke-width="0.722977" stroke-linecap="round" stroke-linejoin="round" stroke-miterlimit="10" fill="none" transform="matrix(1 0 0 1.00059 28.3615 105.362)"/><g clip-path="url(#clip13)"><text fill="#808080" font-family="Arial,Arial_MSFontService,sans-serif" font-weight="400" font-size="12" transform="matrix(0.722977 0 0 0.723404 549.989 491)">ZoneID</text></g><path d="M331.123 210.386 423.665 210.386 423.665 338.353 516.206 338.353" stroke="#FFFFFF" stroke-width="0.722977" stroke-miterlimit="10" fill="none" transform="matrix(1 0 0 1.00059 28.3615 105.362)"/><path d="M335.461 206.048 335.461 214.724" stroke="#FFFFFF" stroke-width="0.722977" stroke-miterlimit="10" fill="none" transform="matrix(1 0 0 1.00059 28.3615 105.362)"/><path d="M511.868 342.691 511.868 334.015" stroke="#FFFFFF" stroke-width="0.722977" stroke-miterlimit="10" fill="none" transform="matrix(1 0 0 1.00059 28.3615 105.362)"/><path d="M336.184 394.022 336.184 382.093C336.184 375.587 332.931 372.333 326.424 372.333L225.207 372.333C218.701 372.333 215.447 375.587 215.447 382.093L215.447 394.022" stroke="#FFFFFF" stroke-width="0.722977" stroke-miterlimit="10" fill="#FFFFFF" transform="matrix(1 0 0 1.00059 28.3615 105.362)"/><path d="M215.447 394.022 215.447 456.56C215.447 463.067 218.701 466.32 225.207 466.32L326.424 466.32C332.931 466.32 336.184 463.067 336.184 456.56L336.184 394.022" stroke="#FFFFFF" stroke-width="0.722977" stroke-miterlimit="10" fill="none" transform="matrix(1 0 0 1.00059 28.3615 105.362)"/><path d="M215.447 394.022 336.184 394.022" stroke="#FFFFFF" stroke-width="0.722977" stroke-miterlimit="10" fill="none" transform="matrix(1 0 0 1.00059 28.3615 105.362)"/><text font-family="Arial,Arial_MSFontService,sans-serif" font-weight="700" font-size="12" transform="matrix(0.722977 0 0 0.723404 273.812 492)">InventLocation</text><path d="" stroke="#000000" stroke-width="0.722977" stroke-linecap="round" stroke-linejoin="round" stroke-miterlimit="10" fill="none" transform="matrix(1 0 0 1.00059 28.3615 105.362)"/><path d="" stroke="#000000" stroke-width="0.722977" stroke-linecap="round" stroke-linejoin="round" stroke-miterlimit="10" fill="none" transform="matrix(1 0 0 1.00059 28.3615 105.362)"/><g clip-path="url(#clip14)"><text fill="#808080" font-family="Arial,Arial_MSFontService,sans-serif" font-weight="400" font-size="12" transform="matrix(0.722977 0 0 0.723404 249.231 514)">InventLocationID</text></g><path d="" stroke="#000000" stroke-width="0.722977" stroke-linecap="round" stroke-linejoin="round" stroke-miterlimit="10" fill="none" transform="matrix(1 0 0 1.00059 28.3615 105.362)"/><path d="" stroke="#000000" stroke-width="0.722977" stroke-linecap="round" stroke-linejoin="round" stroke-miterlimit="10" fill="none" transform="matrix(1 0 0 1.00059 28.3615 105.362)"/><g clip-path="url(#clip15)"><text fill="#808080" font-family="Arial,Arial_MSFontService,sans-serif" font-weight="400" font-size="12" transform="matrix(0.722977 0 0 0.723404 249.231 535)">SiteID</text></g><path d="" stroke="#000000" stroke-width="0.722977" stroke-linecap="round" stroke-linejoin="round" stroke-miterlimit="10" fill="none" transform="matrix(1 0 0 1.00059 28.3615 105.362)"/><path d="" stroke="#000000" stroke-width="0.722977" stroke-linecap="round" stroke-linejoin="round" stroke-miterlimit="10" fill="none" transform="matrix(1 0 0 1.00059 28.3615 105.362)"/><g clip-path="url(#clip16)"><text fill="#0079FF" font-family="Arial,Arial_MSFontService,sans-serif" font-weight="400" font-size="12" transform="matrix(0.722977 0 0 0.723404 249.231 557)">Name</text></g><path d="M113.507 232.799 164.477 232.799 164.477 426.556 215.447 426.556" stroke="#FFFFFF" stroke-width="0.722977" stroke-miterlimit="10" fill="none" transform="matrix(1 0 0 1.00059 28.3615 105.362)"/><path d="M117.845 228.461 117.845 237.136" stroke="#FFFFFF" stroke-width="0.722977" stroke-miterlimit="10" fill="none" transform="matrix(1 0 0 1.00059 28.3615 105.362)"/><path d="M206.771 430.894 206.771 422.219M215.447 422.219 206.771 426.556 215.447 430.894" stroke="#FFFFFF" stroke-width="0.722977" stroke-miterlimit="10" fill="none" transform="matrix(1 0 0 1.00059 28.3615 105.362)"/><path d="M336.184 404.867 426.195 404.867 426.195 360.043 516.206 360.043" stroke="#FFFFFF" stroke-width="0.722977" stroke-miterlimit="10" fill="none" transform="matrix(1 0 0 1.00059 28.3615 105.362)"/><path d="M340.522 400.529 340.522 409.205" stroke="#FFFFFF" stroke-width="0.722977" stroke-miterlimit="10" fill="none" transform="matrix(1 0 0 1.00059 28.3615 105.362)"/><path d="M507.53 364.38 507.53 355.705M516.206 355.705 507.53 360.043 516.206 364.38" stroke="#FFFFFF" stroke-width="0.722977" stroke-miterlimit="10" fill="none" transform="matrix(1 0 0 1.00059 28.3615 105.362)"/><text fill="#0079FF" font-family="Arial,Arial_MSFontService,sans-serif" font-style="italic" font-weight="400" font-size="10" transform="matrix(0.722977 0 0 0.723404 69.9327 294)">Inventory Site<tspan font-size="10" x="270.5" y="-87.0882">Inventory Dimensions</tspan><tspan font-size="10" x="681" y="-197.676">Inventory Summary</tspan><tspan font-size="10" x="277" y="239.147">Inventory Location</tspan><tspan font-size="10" x="689.5" y="146.529">Warehouse Location</tspan></text><path d="M840.822 220.508 840.822 208.579C840.822 202.072 837.569 198.819 831.062 198.819L738.521 198.819C732.014 198.819 728.761 202.072 728.761 208.579L728.761 220.508" stroke="#FFFFFF" stroke-width="0.722977" stroke-miterlimit="10" fill="#FFFFFF" transform="matrix(1 0 0 1.00059 28.3615 105.362)"/><path d="M728.761 220.508 728.761 282.865C728.761 289.372 732.014 292.625 738.521 292.625L831.062 292.625C837.569 292.625 840.822 289.372 840.822 282.865L840.822 220.508" stroke="#FFFFFF" stroke-width="0.722977" stroke-miterlimit="10" fill="none" transform="matrix(1 0 0 1.00059 28.3615 105.362)"/><path d="M728.761 220.508 840.822 220.508" stroke="#FFFFFF" stroke-width="0.722977" stroke-miterlimit="10" fill="none" transform="matrix(1 0 0 1.00059 28.3615 105.362)"/><text font-family="Arial,Arial_MSFontService,sans-serif" font-weight="700" font-size="12" transform="matrix(0.722977 0 0 0.723404 789.656 318)">InventTable</text><path d="" stroke="#000000" stroke-width="0.722977" stroke-linecap="round" stroke-linejoin="round" stroke-miterlimit="10" fill="none" transform="matrix(1 0 0 1.00059 28.3615 105.362)"/><path d="" stroke="#000000" stroke-width="0.722977" stroke-linecap="round" stroke-linejoin="round" stroke-miterlimit="10" fill="none" transform="matrix(1 0 0 1.00059 28.3615 105.362)"/><g clip-path="url(#clip17)"><text fill="#0079FF" font-family="Arial,Arial_MSFontService,sans-serif" font-weight="400" font-size="12" transform="matrix(0.722977 0 0 0.723404 762.545 340)">ItemID</text></g><path d="" stroke="#000000" stroke-width="0.722977" stroke-linecap="round" stroke-linejoin="round" stroke-miterlimit="10" fill="none" transform="matrix(1 0 0 1.00059 28.3615 105.362)"/><path d="" stroke="#000000" stroke-width="0.722977" stroke-linecap="round" stroke-linejoin="round" stroke-miterlimit="10" fill="none" transform="matrix(1 0 0 1.00059 28.3615 105.362)"/><g clip-path="url(#clip18)"><text fill="#808080" font-family="Arial,Arial_MSFontService,sans-serif" font-weight="400" font-size="12" transform="matrix(0.722977 0 0 0.723404 762.545 362)">LifecycleStateID</text></g><path d="" stroke="#000000" stroke-width="0.722977" stroke-linecap="round" stroke-linejoin="round" stroke-miterlimit="10" fill="none" transform="matrix(1 0 0 1.00059 28.3615 105.362)"/><path d="" stroke="#000000" stroke-width="0.722977" stroke-linecap="round" stroke-linejoin="round" stroke-miterlimit="10" fill="none" transform="matrix(1 0 0 1.00059 28.3615 105.362)"/><g clip-path="url(#clip19)"><text fill="#808080" font-family="Arial,Arial_MSFontService,sans-serif" font-weight="400" font-size="12" transform="matrix(0.722977 0 0 0.723404 762.545 384)">Product</text></g><text fill="#0079FF" font-family="Arial,Arial_MSFontService,sans-serif" font-style="italic" font-weight="400" font-size="10" transform="matrix(0.722977 0 0 0.723404 806.646 294)">Item</text><path d="M613.807 109.893 671.284 109.893 671.284 231.353 728.761 231.353" stroke="#FFFFFF" stroke-width="0.722977" stroke-miterlimit="10" fill="none" transform="matrix(1 0 0 1.00059 28.3615 105.362)"/><path d="M618.145 105.555 618.145 114.23" stroke="#FFFFFF" stroke-width="0.722977" stroke-miterlimit="10" fill="none" transform="matrix(1 0 0 1.00059 28.3615 105.362)"/><path d="M724.423 235.69 724.423 227.015" stroke="#FFFFFF" stroke-width="0.722977" stroke-miterlimit="10" fill="none" transform="matrix(1 0 0 1.00059 28.3615 105.362)"/><path d="M1210.99 349.379 1210.99 337.449C1210.99 330.943 1207.73 327.689 1201.23 327.689L1087 327.689C1080.49 327.689 1077.24 330.943 1077.24 337.449L1077.24 349.379" stroke="#FFFFFF" stroke-width="0.722977" stroke-miterlimit="10" fill="#FFFFFF" transform="matrix(1 0 0 1.00059 28.3615 105.362)"/><path d="M1077.24 349.379 1077.24 390.046C1077.24 396.553 1080.49 399.806 1087 399.806L1201.23 399.806C1207.73 399.806 1210.99 396.553 1210.99 390.046L1210.99 349.379" stroke="#FFFFFF" stroke-width="0.722977" stroke-miterlimit="10" fill="none" transform="matrix(1 0 0 1.00059 28.3615 105.362)"/><path d="M1077.24 349.379 1210.99 349.379" stroke="#FFFFFF" stroke-width="0.722977" stroke-miterlimit="10" fill="none" transform="matrix(1 0 0 1.00059 28.3615 105.362)"/><text font-family="Arial,Arial_MSFontService,sans-serif" font-weight="700" font-size="12" transform="matrix(0.722977 0 0 0.723404 1140.3 447)">EcoResProduct</text><path d="" stroke="#000000" stroke-width="0.722977" stroke-linecap="round" stroke-linejoin="round" stroke-miterlimit="10" fill="none" transform="matrix(1 0 0 1.00059 28.3615 105.362)"/><path d="" stroke="#000000" stroke-width="0.722977" stroke-linecap="round" stroke-linejoin="round" stroke-miterlimit="10" fill="none" transform="matrix(1 0 0 1.00059 28.3615 105.362)"/><g clip-path="url(#clip20)"><text fill="#808080" font-family="Arial,Arial_MSFontService,sans-serif" font-weight="400" font-size="12" transform="matrix(0.722977 0 0 0.723404 1111.02 469)">Product</text></g><path d="" stroke="#000000" stroke-width="0.722977" stroke-linecap="round" stroke-linejoin="round" stroke-miterlimit="10" fill="none" transform="matrix(1 0 0 1.00059 28.3615 105.362)"/><path d="" stroke="#000000" stroke-width="0.722977" stroke-linecap="round" stroke-linejoin="round" stroke-miterlimit="10" fill="none" transform="matrix(1 0 0 1.00059 28.3615 105.362)"/><g clip-path="url(#clip21)"><text fill="#0079FF" font-family="Arial,Arial_MSFontService,sans-serif" font-weight="400" font-size="12" transform="matrix(0.722977 0 0 0.723404 1111.02 491)">SearchName</text></g><text fill="#0079FF" font-family="Arial,Arial_MSFontService,sans-serif" font-style="italic" font-weight="400" font-size="10" transform="matrix(0.722977 0 0 0.723404 1142.47 423)">Item Search Name</text><path d="M1223.28 181.467 1223.28 169.538C1223.28 163.031 1220.02 159.778 1213.52 159.778L1087 159.778C1080.49 159.778 1077.24 163.031 1077.24 169.538L1077.24 181.467" stroke="#FFFFFF" stroke-width="0.722977" stroke-miterlimit="10" fill="#FFFFFF" transform="matrix(1 0 0 1.00059 28.3615 105.362)"/><path d="M1077.24 181.467 1077.24 243.824C1077.24 250.331 1080.49 253.584 1087 253.584L1213.52 253.584C1220.02 253.584 1223.28 250.331 1223.28 243.824L1223.28 181.467" stroke="#FFFFFF" stroke-width="0.722977" stroke-miterlimit="10" fill="none" transform="matrix(1 0 0 1.00059 28.3615 105.362)"/><path d="M1077.24 181.467 1223.28 181.467" stroke="#FFFFFF" stroke-width="0.722977" stroke-miterlimit="10" fill="none" transform="matrix(1 0 0 1.00059 28.3615 105.362)"/><text font-family="Arial,Arial_MSFontService,sans-serif" font-weight="700" font-size="12" transform="matrix(0.722977 0 0 0.723404 1123.67 279)">EcoResProductTranslation</text><path d="" stroke="#000000" stroke-width="0.722977" stroke-linecap="round" stroke-linejoin="round" stroke-miterlimit="10" fill="none" transform="matrix(1 0 0 1.00059 28.3615 105.362)"/><path d="" stroke="#000000" stroke-width="0.722977" stroke-linecap="round" stroke-linejoin="round" stroke-miterlimit="10" fill="none" transform="matrix(1 0 0 1.00059 28.3615 105.362)"/><g clip-path="url(#clip22)"><text fill="#808080" font-family="Arial,Arial_MSFontService,sans-serif" font-weight="400" font-size="12" transform="matrix(0.722977 0 0 0.723404 1111.02 301)">Product</text></g><path d="" stroke="#000000" stroke-width="0.722977" stroke-linecap="round" stroke-linejoin="round" stroke-miterlimit="10" fill="none" transform="matrix(1 0 0 1.00059 28.3615 105.362)"/><path d="" stroke="#000000" stroke-width="0.722977" stroke-linecap="round" stroke-linejoin="round" stroke-miterlimit="10" fill="none" transform="matrix(1 0 0 1.00059 28.3615 105.362)"/><g clip-path="url(#clip23)"><text fill="#808080" font-family="Arial,Arial_MSFontService,sans-serif" font-weight="400" font-size="12" transform="matrix(0.722977 0 0 0.723404 1111.02 323)">Language</text></g><path d="" stroke="#000000" stroke-width="0.722977" stroke-linecap="round" stroke-linejoin="round" stroke-miterlimit="10" fill="none" transform="matrix(1 0 0 1.00059 28.3615 105.362)"/><path d="" stroke="#000000" stroke-width="0.722977" stroke-linecap="round" stroke-linejoin="round" stroke-miterlimit="10" fill="none" transform="matrix(1 0 0 1.00059 28.3615 105.362)"/><g clip-path="url(#clip24)"><text fill="#0079FF" font-family="Arial,Arial_MSFontService,sans-serif" font-weight="400" font-size="12" transform="matrix(0.722977 0 0 0.723404 1111.02 344)">Name</text></g><text fill="#0079FF" font-family="Arial,Arial_MSFontService,sans-serif" font-style="italic" font-weight="400" font-size="10" transform="matrix(0.722977 0 0 0.723404 1161.27 256)">Item Name</text><path d="M840.822 274.731 959.029 274.731 959.029 192.312 1077.24 192.312" stroke="#FFFFFF" stroke-width="0.722977" stroke-miterlimit="10" fill="none" transform="matrix(1 0 0 1.00059 28.3615 105.362)"/><path d="M845.16 270.393 845.16 279.069" stroke="#FFFFFF" stroke-width="0.722977" stroke-miterlimit="10" fill="none" transform="matrix(1 0 0 1.00059 28.3615 105.362)"/><path d="M1068.56 196.65 1068.56 187.974M1077.24 187.974 1068.56 192.312 1077.24 196.65" stroke="#FFFFFF" stroke-width="0.722977" stroke-miterlimit="10" fill="none" transform="matrix(1 0 0 1.00059 28.3615 105.362)"/><path d="M840.822 274.731 959.029 274.731 959.029 360.259 1077.24 360.223" stroke="#FFFFFF" stroke-width="0.722977" stroke-miterlimit="10" fill="none" transform="matrix(1 0 0 1.00059 28.3615 105.362)"/><path d="M845.16 270.393 845.16 279.069" stroke="#FFFFFF" stroke-width="0.722977" stroke-miterlimit="10" fill="none" transform="matrix(1 0 0 1.00059 28.3615 105.362)"/><path d="M1072.9 364.561 1072.9 355.885" stroke="#FFFFFF" stroke-width="0.722977" stroke-miterlimit="10" fill="none" transform="matrix(1 0 0 1.00059 28.3615 105.362)"/><path d="M1046.87 39.7637 1046.87 27.8346C1046.87 21.3278 1043.62 18.0744 1037.11 18.0744L893.961 18.0744C887.454 18.0744 884.201 21.3278 884.201 27.8346L884.201 39.7637" stroke="#FFFFFF" stroke-width="0.722977" stroke-miterlimit="10" fill="#FFFFFF" transform="matrix(1 0 0 1.00059 28.3615 105.362)"/><path d="M884.201 39.7637 884.201 80.4312C884.201 86.938 887.454 90.1914 893.961 90.1914L1037.11 90.1914C1043.62 90.1914 1046.87 86.938 1046.87 80.4312L1046.87 39.7637" stroke="#FFFFFF" stroke-width="0.722977" stroke-miterlimit="10" fill="none" transform="matrix(1 0 0 1.00059 28.3615 105.362)"/><path d="M884.201 39.7637 1046.87 39.7637" stroke="#FFFFFF" stroke-width="0.722977" stroke-miterlimit="10" fill="none" transform="matrix(1 0 0 1.00059 28.3615 105.362)"/><text font-family="Arial,Arial_MSFontService,sans-serif" font-weight="700" font-size="12" transform="matrix(0.722977 0 0 0.723404 932.444 138)">EcoResProductLifecycleState</text><path d="" stroke="#000000" stroke-width="0.722977" stroke-linecap="round" stroke-linejoin="round" stroke-miterlimit="10" fill="none" transform="matrix(1 0 0 1.00059 28.3615 105.362)"/><path d="" stroke="#000000" stroke-width="0.722977" stroke-linecap="round" stroke-linejoin="round" stroke-miterlimit="10" fill="none" transform="matrix(1 0 0 1.00059 28.3615 105.362)"/><g clip-path="url(#clip25)"><text fill="#808080" font-family="Arial,Arial_MSFontService,sans-serif" font-weight="400" font-size="12" transform="matrix(0.722977 0 0 0.723404 917.985 159)">LifecycleStateID</text></g><path d="" stroke="#000000" stroke-width="0.722977" stroke-linecap="round" stroke-linejoin="round" stroke-miterlimit="10" fill="none" transform="matrix(1 0 0 1.00059 28.3615 105.362)"/><path d="" stroke="#000000" stroke-width="0.722977" stroke-linecap="round" stroke-linejoin="round" stroke-miterlimit="10" fill="none" transform="matrix(1 0 0 1.00059 28.3615 105.362)"/><g clip-path="url(#clip26)"><text fill="#0079FF" font-family="Arial,Arial_MSFontService,sans-serif" font-weight="400" font-size="12" transform="matrix(0.722977 0 0 0.723404 917.985 181)">LifecycleStateDescription</text></g><text fill="#0079FF" font-family="Arial,Arial_MSFontService,sans-serif" font-style="italic" font-weight="400" font-size="10" transform="matrix(0.722977 0 0 0.723404 959.194 114)">Item Lifecycle Status</text><path d="M840.822 253.042 862.512 253.042 862.512 50.6084 884.201 50.6084" stroke="#FFFFFF" stroke-width="0.722977" stroke-miterlimit="10" fill="none" transform="matrix(1 0 0 1.00059 28.3615 105.362)"/><path d="M845.16 248.704 845.16 257.38" stroke="#FFFFFF" stroke-width="0.722977" stroke-miterlimit="10" fill="none" transform="matrix(1 0 0 1.00059 28.3615 105.362)"/><path d="M879.863 54.9463 879.863 46.2705" stroke="#FFFFFF" stroke-width="0.722977" stroke-miterlimit="10" fill="none" transform="matrix(1 0 0 1.00059 28.3615 105.362)"/><text fill="#808080" font-family="Arial,Arial_MSFontService,sans-serif" font-style="italic" font-weight="400" font-size="10" transform="matrix(0.722977 0 0 0.723404 35.9527 393)">Highest level of Inventory location<tspan font-size="10" x="9" y="15.2059">Generally less than a handful</tspan><tspan font-size="10" x="304" y="266.794">Lower level of Inventory Site</tspan><tspan font-size="10" x="13" y="33.1765">e</tspan><tspan font-size="10" x="19" y="33.1765">.</tspan><tspan font-size="10" x="22" y="33.1765">g</tspan><tspan font-size="10" x="28" y="33.1765">. </tspan><tspan font-size="10" x="34" y="33.1765">Main Site or Commercial</tspan><tspan font-size="10" x="305" y="283.382">Generally about a handful</tspan><tspan font-size="10" x="285.5" y="298.588">e</tspan>.g. Quality, Production or Returns<tspan font-size="10" x="691" y="172.794">Most granular level of Inventory location</tspan><tspan font-size="10" x="706.5" y="190.765">Generally hundreds or thousands</tspan><tspan font-size="10" x="649.5" y="207.353">This could be referencing a specific warehouse</tspan><tspan font-size="10" x="872.5" y="207.353">, </tspan>floor or...</text></g></g></g></g></svg>